<?xml version="1.0" encoding="UTF-8"?><svg id="Layer_2" xmlns="http://www.w3.org/2000/svg" viewBox="0 0 220.8 223.23"><defs><style>.cls-1{fill:#f3ea14;}.cls-2{fill:#00a14c;}.cls-3{fill:#ef616a;}.cls-4{fill:#fbf4f1;}.cls-5{fill:#7352a2;}.cls-6{fill:#201e24;}.cls-7{fill:#3caf49;}.cls-8{fill:#705aa6;}.cls-9{fill:#27743a;}.cls-10{fill:#3b2d7d;}.cls-11{fill:#775ca7;}.cls-12{fill:#835ba6;}</style></defs><g id="Layer_1-2"><g id="SSzlSQ"><g><path class="cls-1" d="M.1,42.78l.08-.7c.8,.45-.08,.43-.18,.63l.1,.07Z"/><path class="cls-10" d="M188.09,55.68c18.47,14.42,29.08,33.32,31.94,56.53,3.77,30.64-6.31,56.81-27.26,78.66-17.96,18.73-40.21,29.66-66.36,31.92-35.44,3.06-64.76-9.48-88.77-35.15-10.62-11.36-18.32-24.88-21.98-39.71-4.35-17.63-5.13-35.82,2.1-53.33,2.34,2.24,1.45,5.06,.86,7.46-.74,3-.8,5.98-.51,8.9,1.28,12.83,2.8,25.6,7.74,37.74,8.86,21.79,23.13,38.45,44.77,48.29,18.93,8.6,38.76,11.28,59.48,9.8,16.13-1.16,30.8-6.07,44.33-14.57,2.68-1.68,6.16-3.13,7.46-7.66-5,2.23-9.51,3.61-14.12,4.67-15.44,3.54-26.51-4.96-26.78-20.63,1.16-1.48,3.26-2.04,3.91-4.02,3.99-4.18,4.64-9.74,6.18-14.93,12.03-7.24,25.31-12.24,36.65-20.78,17.77-13.39,16.01-28.7,1.27-43.22,.06-1.92-.93-3.45-1.72-5.1-1.79-3.72-4.02-7.4-4.84-11.36-1.5-7.25-.78-12.86,5.66-13.5Zm-3.85,128.6c-.02-.11-.01-.26-.08-.31-.1-.07-.25-.06-.38-.08l.1,.53,.35-.14Z"/><path class="cls-5" d="M140.98,168.6c.27,15.67,11.34,24.17,26.78,20.63,4.62-1.06,9.12-2.44,14.12-4.67-1.3,4.53-4.79,5.98-7.46,7.66-13.53,8.5-28.2,13.41-44.33,14.57-20.71,1.49-40.55-1.2-59.48-9.8-21.64-9.83-35.91-26.49-44.77-48.29-4.94-12.15-6.46-24.91-7.74-37.74-.29-2.92-.23-5.9,.51-8.9,.6-2.41,1.48-5.23-.86-7.46,4.84-15.39,13.55-28.05,26.57-37.66,.37-.27,.55-.81,.81-1.22,1.25-.04,2.49-.07,3.74-.11,.22,1.45-.94,1.92-1.81,2.69-6.36,5.71-11.66,12.27-15.11,20.15-5.47,12.5-7.67,25.37-6.1,39.15,2.32,20.44,9.74,38.25,24.94,52.23,11.85,10.89,28.55,6.16,34.41-8.52,5.62,1.77,9.77,6.54,15.72,7.64,13.4,5.42,26.75,5.18,40.05-.35Z"/><path class="cls-7" d="M48.89,55.6c-1.25,.04-2.49,.07-3.74,.11,15.62-12.97,33.69-20.18,53.65-23.1,3.12-.46,6.2-1.07,9.36-.92,2.65,.12,3.74-.86,3.9-3.73,.41-7.5-.89-14.1-7.29-18.99-5.21-3.98,.75-5.07,2.13-7.33,3.79,4.15,6.35,9.28,8.73,14.1,4.16,8.43,5.92,17.71,.51,26.79,2.13-.1,3.66-.79,3.9-3.36,.24-2.62,.77-5.22,1.17-7.83,18.61,.63,36.16,5.15,52.45,14.27,1.09,.61,2.51,.79,3.01,2.22-6.24-1.06-12.48-2.12-18.72-3.19-5.94-2.41-12.32-2.08-18.48-2.44-2.57-.15-6.5-.95-8.49,2.53l.05-.04-1.38,1.04c-1.51,2.44,.28,3.77,1.87,4.88,4.06,2.85,8.23,5.52,12.36,8.26,6.2,6.49,12.34,13.03,14.18,22.3-3.13-.02-7.31,.61-10.3-.86-4.07-5.06-6.32-10.85-11.95-14.52-7.77-7.86-17.02-11.95-28.14-10.04-7.84,1.34-15.27,4.19-22.31,7.95-.96-.04-1.93-.12-2.34,1.06l.05-.03c-.9-.09-1.76-.12-2.04,1.02l.03-.02c-8.06,1.72-14.52,6.05-19.87,12.17v-.06l-1.42,.74c-2.17,1.94-4.34,3.88-6.5,5.81-.78,.06-1.55,.12-2.33,.18,1.13-7.57,5.18-13.45,10.69-18.48,5.52-5.06,12.65-6.98,19.27-9.92,5.44-2.42,10.83-4.98,14.88-9.57,.62-.71,1.45-1.82,1.28-2.52-.34-1.37-1.84-1.13-2.98-1.06-2.65,.17-5.3,.43-7.95,.65-1.75,.18-3.7-.63-5.14,1.06l.09-.03c-1.43,.05-3.02-.53-4.08,1.01l.07-.03c-2.91-.21-5.66,.19-8,2.15l.07-.02c-1.18-.13-2.38-.35-3.11,.97l.09-.04-.97,.53c-5.02,1.87-10.04,3.74-15.07,5.62-.6-.09-.99,.13-1.1,.76l-.05-.07Z"/><path class="cls-5" d="M158.04,81.19c-1.85-9.27-7.98-15.8-14.18-22.3,1.38-1.58,2.8-3.13,4.12-4.76,2.33-2.87,4.23-5.85,1.96-9.67,2.66,.06,5.32,.12,7.99,.17,6.24,1.06,12.48,2.12,18.72,3.19,4.22,2.02,8.32,4.22,11.44,7.84-6.45,.64-7.17,6.25-5.66,13.5,.82,3.96,3.06,7.64,4.84,11.36,.8,1.66,1.79,3.18,1.72,5.1l-.03,.05c-.74-.32-1.5-.95-2.22-.92-9.78,.48-18.96-3.84-28.7-3.57Z"/><path class="cls-2" d="M121.18,31.35c-.4,2.61-.92,5.2-1.17,7.83-.24,2.56-1.76,3.26-3.9,3.36,5.42-9.07,3.65-18.36-.51-26.79-2.38-4.82-4.94-9.95-8.73-14.1,1.58-2.71,3.06-1.61,4.64,.05,6.47,6.77,10.44,14.52,9.81,24.17-.12,1.83-.11,3.66-.16,5.49Z"/><path class="cls-5" d="M188.99,85.64c14.74,14.52,16.5,29.83-1.27,43.22-11.34,8.55-24.61,13.54-36.65,20.78-.1-1.87-.2-3.74-.33-6.29-6.02,4.72-11.71,8.57-18.06,11.4-14.96,6.66-30.58,7.42-46.54,5.61,2.46-7.68,3.93-15.56,4.84-23.56,14.83-4.69,21.05-15.65,21.92-30.37,.18-3.05,.22-5.83,4.31-5.77,3.96,.05,3.67,2.88,3.83,5.63,.96,16.09,8.35,26.37,21.45,30.12,6.2,1.77,12.58,1.76,18.81,1.14,13.21-1.32,23.39-7.97,26.69-22.65,2.18-9.69,.12-19.49,.97-29.21l.03-.05Z"/><path class="cls-6" d="M86.14,160.36c15.96,1.81,31.58,1.05,46.54-5.61,6.35-2.83,12.05-6.68,18.06-11.4,.13,2.55,.23,4.42,.33,6.29-1.54,5.19-2.2,10.75-6.18,14.93-8.5-2.86-17.29-2.37-25.94-1.62-6.32,.55-12.67,2.02-18.02,5.98-5.94-1.1-10.1-5.87-15.72-7.64,.31-.32,.62-.63,.93-.95Z"/><path class="cls-3" d="M100.93,168.95c5.35-3.96,11.69-5.43,18.02-5.98,8.65-.76,17.44-1.24,25.94,1.62-.66,1.97-2.76,2.54-3.91,4.02-13.3,5.54-26.65,5.77-40.05,.35Z"/><path class="cls-5" d="M184.24,184.28l-.35,.14-.1-.53c.13,.02,.28,.01,.38,.08,.06,.05,.05,.2,.08,.31Z"/><path class="cls-12" d="M86.14,160.36c-.31,.32-.62,.63-.93,.95-5.86,14.68-22.56,19.41-34.41,8.52-15.2-13.98-22.63-31.8-24.94-52.23-1.56-13.78,.63-26.66,6.1-39.15,3.45-7.88,8.75-14.43,15.11-20.15,.86-.78,2.02-1.24,1.81-2.69l.05,.07c.37-.25,.73-.5,1.1-.76,5.02-1.87,10.04-3.74,15.06-5.62,.32-.18,.65-.36,.97-.53l-.09,.04c1.15,.04,2.38,.35,3.11-.97l-.07,.02c2.86,0,5.53-.68,8-2.15l-.07,.03c1.44-.02,2.97,.31,4.08-1.01l-.09,.03c1.8,.04,3.6,.14,5.14-1.06,2.65-.22,5.3-.47,7.95-.65,1.14-.07,2.64-.31,2.98,1.06,.17,.7-.65,1.81-1.28,2.52-4.05,4.59-9.44,7.15-14.88,9.57-6.61,2.94-13.74,4.87-19.27,9.92-5.51,5.04-9.56,10.92-10.69,18.48-1.57,0-3.13,0-4.7,.01-.06-.66-.14-1.32-.18-1.99-.1-1.61,.47-3.59-1.37-4.48-2.02-.97-3.43,.81-4.79,1.81-6.46,4.76-8.51,15.02-4.53,21.99,.83,1.44,1.72,3.18,3.45,3.33,2.01,.18,2.5-1.88,3.26-3.29,1.02-1.87,1.92-3.8,2.87-5.71,.03,4.15-.17,8.31,.13,12.43,1.12,15.27,9.44,25.08,22.81,28.01,7.74,1.69,15.42,1.01,23.13,.08-.91,8-2.38,15.88-4.84,23.56ZM53,68.58c-.16-1.71-1.06-2.98-2.49-2.65-3.01,.67-4.91,2.84-5.15,5.92-.11,1.35,1.07,2.44,2.72,2.12,3.03-.59,4.22-2.87,4.92-5.39Z"/><path class="cls-8" d="M112,89.55c-6.19-1.97-11.43-6.07-18.18-7.04-12.58-1.81-24.95-1.7-37.21,1.69-1.17,.32-2.22,.49-3.37,.22,2.17-1.94,4.34-3.88,6.51-5.81,.77,.32,1.34,.28,1.41-.74v.06c7.04-3.4,13.5-7.73,19.89-12.17l-.03,.02c.89,.07,1.75,.11,2.04-1.02l-.05,.03c.98,.08,1.82-.12,2.34-1.06,7.04-3.76,14.47-6.61,22.31-7.95,11.13-1.91,20.37,2.18,28.15,10.05-.83,1-1.52,2.2-2.53,2.98-7.86,6.13-14.43,13.57-21.26,20.75Z"/><path class="cls-5" d="M112,89.55c6.84-7.17,13.4-14.62,21.26-20.75,1.01-.78,1.69-1.98,2.53-2.98,5.63,3.67,9.88,10.46,13.95,15.52-2.41,1.61-6.68,.31-9.49,1.08-4.96,1.36-9.69,2.88-14.16,5.48-4.36,2.54-9.03,4.21-14.09,1.64Z"/><path class="cls-11" d="M149.94,44.47c2.27,3.82,.37,6.8-1.96,9.67-1.32,1.63-2.74,3.17-4.12,4.76-4.13-2.74-8.31-5.42-12.36-8.26-1.59-1.12-3.38-2.44-1.87-4.88,.46-.35,.92-.69,1.37-1.04l-.05,.04c6.32-.91,12.63-1.79,18.99-.27Z"/><path class="cls-9" d="M81.04,65.76c-6.39,4.45-12.84,8.78-19.87,12.17,5.36-6.13,11.82-10.45,19.87-12.17Z"/><path class="cls-9" d="M149.94,44.47c-6.35-1.52-12.67-.63-18.99,.27,2-3.48,5.92-2.69,8.49-2.53,6.16,.36,12.55,.03,18.48,2.44-2.66-.06-5.32-.12-7.99-.17Z"/><path class="cls-9" d="M77.02,45.7c-2.46,1.47-5.14,2.15-8,2.15,2.33-1.95,5.08-2.36,8-2.15Z"/><path class="cls-9" d="M86.09,43.68c-1.54,1.21-3.34,1.11-5.14,1.06,1.44-1.69,3.39-.88,5.14-1.06Z"/><path class="cls-9" d="M81.04,44.72c-1.12,1.32-2.64,.99-4.08,1.01,1.06-1.54,2.65-.97,4.08-1.01Z"/><path class="cls-9" d="M69.09,47.83c-.72,1.32-1.96,1.01-3.11,.97,.72-1.32,1.93-1.1,3.11-.97Z"/><path class="cls-9" d="M85.34,63.72c-.51,.94-1.36,1.14-2.34,1.06,.4-1.18,1.38-1.11,2.34-1.06Z"/><path class="cls-9" d="M83.05,64.75c-.29,1.13-1.15,1.09-2.04,1.02,.28-1.14,1.14-1.11,2.04-1.02Z"/><path class="cls-9" d="M66.07,48.76c-.32,.18-.65,.36-.97,.53,.33-.18,.65-.36,.97-.53Z"/><path class="cls-5" d="M50.04,54.91c-.37,.25-.73,.5-1.1,.76,.11-.63,.5-.84,1.1-.76Z"/><path class="cls-9" d="M61.15,77.87c-.07,1.01-.64,1.06-1.41,.74,.47-.25,.94-.49,1.41-.74Z"/><path class="cls-9" d="M131,44.71c-.46,.35-.91,.69-1.37,1.04,.46-.35,.91-.69,1.37-1.04Z"/><path class="cls-4" d="M46.22,84.61c-2.79,3.63-.25,7.85-1.3,11.67-.95,1.9-1.85,3.84-2.87,5.71-.77,1.41-1.26,3.48-3.26,3.29-1.73-.16-2.62-1.89-3.45-3.33-3.98-6.97-1.93-17.22,4.53-21.99,1.36-1.01,2.77-2.79,4.79-1.81,1.85,.89,1.27,2.86,1.37,4.48,.04,.66,.12,1.32,.18,1.99Z"/><path class="cls-4" d="M53,68.58c-.71,2.52-1.89,4.8-4.92,5.39-1.65,.32-2.83-.77-2.72-2.12,.24-3.08,2.14-5.24,5.15-5.92,1.44-.32,2.33,.94,2.49,2.65Z"/></g><path class="cls-6" d="M148.26,81.1c4.23-.47,6.54-.03,9.68,.03,10.54,.11,18.49,3.95,28.04,3.5,2.14-.1,3.16,1.04,2.97,3.05-.88,9.05,1.14,18.18-.96,27.22-3.39,14.56-13.48,21.29-26.81,22.6-6.24,.61-12.64,.63-18.85-1.15-13.13-3.77-20.52-14.04-21.47-30.13-.16-2.75-.72-5.62-3.85-5.61-2.95,.01-3.75,3.38-3.93,6.41-.72,15.36-7.48,25.06-22.36,29.73-5.74,1.18-11.55,.98-17.35,.85-13.73-.31-24.57-9.39-27.79-22.67-1.52-6.26-.53-12.55-1.03-18.8,.97-3.8-1.48-7.98,1.28-11.59,1.58,0,3.17-.02,4.75-.03,.77-.06,1.54-.12,2.32-.18,1.15,.27,2.2,.11,3.38-.22,12.29-3.39,24.68-3.49,37.29-1.69,6.77,.97,12.01,5.09,18.22,7.05,5.07,2.54,9.76,.89,14.14-1.65,4.49-2.6,9.23-4.12,14.21-5.49,2.8-.77,3.9-.98,8.12-1.24Z"/></g></g></svg>